<?xml version="1.0" standalone="no"?>
<!DOCTYPE svg PUBLIC "-//W3C//DTD SVG 20010904//EN"
 "http://www.w3.org/TR/2001/REC-SVG-20010904/DTD/svg10.dtd">
<svg version="1.0" xmlns="http://www.w3.org/2000/svg"
 width="1024.000000pt" height="1024.000000pt" viewBox="0 0 1024.000000 1024.000000"
 preserveAspectRatio="xMidYMid meet">
<metadata>
Created by potrace 1.11, written by Peter Selinger 2001-2013
</metadata>
<g transform="translate(0.000000,1024.000000) scale(0.100000,-0.100000)"
fill="#000000" stroke="none">
<path d="M2347 8554 c-1 -1 -41 -4 -89 -7 -237 -15 -430 -123 -518 -289 -77
-144 -74 -280 10 -406 48 -72 93 -107 168 -134 103 -36 198 -32 357 14 112 33
157 24 222 -44 53 -55 76 -120 77 -218 2 -207 -60 -384 -275 -783 -232 -430
-319 -619 -408 -882 -110 -328 -180 -680 -216 -1085 -5 -63 -6 -371 0 -450 8
-119 24 -253 40 -330 3 -14 8 -41 11 -60 26 -150 110 -432 184 -615 33 -83
135 -294 172 -355 72 -119 175 -267 239 -345 227 -272 453 -431 717 -504 40
-11 73 -19 75 -19 1 1 12 -2 23 -6 16 -5 23 -18 28 -47 19 -118 119 -209 268
-244 54 -13 194 -14 998 -11 514 2 969 7 1010 11 140 12 218 71 237 181 18 97
-31 235 -121 344 -25 29 -44 55 -42 57 1 2 83 28 182 59 155 48 530 178 589
204 11 4 101 41 200 80 99 40 186 74 193 77 10 4 11 -18 7 -103 -6 -142 -25
-243 -71 -384 -65 -200 -49 -325 56 -430 80 -80 149 -95 405 -91 164 3 183 3
535 1 122 -1 231 4 270 11 61 11 135 42 170 71 93 77 126 256 69 383 -39 87
-118 154 -265 225 -132 63 -187 98 -203 128 -8 15 -15 54 -45 232 -5 29 -9 51
-31 210 -9 63 -18 126 -21 140 -2 14 -7 52 -10 85 -4 33 -8 63 -10 66 -2 4 26
31 64 62 242 196 489 499 636 780 80 153 162 382 192 530 42 215 49 283 48
467 -2 157 -6 203 -35 342 -33 164 -95 346 -189 553 -12 28 -28 64 -36 80 -40
90 -68 182 -108 358 -5 22 1 35 32 70 56 61 87 114 110 189 29 92 34 151 36
404 2 201 4 222 23 259 58 111 68 191 67 532 -2 347 -19 456 -85 536 -98 119
-257 106 -391 -30 -81 -82 -83 -85 -264 -327 l-164 -218 -274 -2 -273 -2 -174
233 c-265 356 -361 442 -495 443 -120 0 -202 -80 -219 -215 -4 -28 -9 -61 -12
-75 -3 -14 -7 -144 -8 -290 -3 -247 2 -325 29 -425 15 -56 23 -79 46 -135 22
-53 26 -77 23 -130 -7 -128 -7 -386 0 -447 18 -154 80 -286 175 -374 l65 -59
-33 -92 c-18 -51 -38 -106 -45 -123 -54 -126 -67 -148 -116 -192 -29 -27 -127
-120 -217 -208 -110 -107 -176 -164 -200 -173 -86 -30 -342 -86 -487 -107 -22
-3 -65 -10 -95 -15 -63 -10 -120 -17 -205 -25 -33 -3 -76 -8 -95 -10 -19 -2
-60 -7 -90 -10 -96 -10 -158 -19 -309 -46 -838 -147 -1435 -524 -1808 -1139
-68 -113 -67 -113 -97 -11 -18 61 -42 194 -51 286 -8 77 -8 313 -1 390 4 33 9
83 12 110 3 28 11 86 19 130 8 44 17 94 19 110 19 106 82 312 141 455 53 130
97 218 223 450 133 245 261 504 315 640 42 106 98 283 112 355 27 138 37 369
21 475 -72 489 -366 815 -799 885 -79 12 -213 24 -220 19z m216 -219 c158 -32
259 -86 373 -200 67 -68 89 -99 132 -186 75 -152 103 -270 105 -439 3 -203
-16 -313 -88 -520 -65 -184 -150 -363 -347 -724 -169 -311 -267 -536 -327
-751 -76 -274 -106 -497 -106 -785 0 -195 7 -280 34 -415 26 -134 49 -201 117
-344 48 -102 62 -122 90 -136 37 -17 78 -12 107 13 10 9 40 62 67 118 305 632
815 1021 1571 1198 100 24 235 49 324 61 22 3 56 8 75 11 19 3 49 7 65 9 17 2
59 6 95 10 36 3 83 8 105 10 22 2 63 6 90 10 389 50 714 120 823 178 23 12
116 94 206 182 89 88 192 187 227 220 73 68 107 127 176 303 25 65 46 118 47
119 1 2 93 -60 204 -137 290 -200 330 -220 451 -225 141 -7 248 49 613 322
l137 102 12 -42 c29 -110 76 -241 116 -327 125 -264 189 -478 214 -705 10 -97
6 -355 -5 -374 -3 -4 -7 -27 -11 -51 -65 -454 -295 -873 -678 -1239 -37 -35
-70 -62 -73 -59 -3 3 -7 44 -9 90 -5 103 11 143 112 276 79 104 152 239 212
389 45 113 104 308 120 399 6 32 13 68 15 79 6 32 -20 82 -51 98 -45 23 -111
5 -131 -37 -6 -11 -20 -66 -32 -121 -66 -301 -174 -540 -340 -755 -66 -86
-104 -190 -104 -284 0 -66 11 -191 19 -226 2 -8 7 -46 11 -85 3 -38 8 -72 9
-75 2 -3 6 -34 10 -70 4 -36 9 -72 10 -81 2 -9 6 -40 10 -70 7 -58 13 -99 20
-139 2 -14 7 -50 11 -80 3 -30 7 -58 9 -61 2 -3 6 -27 10 -55 3 -27 7 -56 10
-64 2 -8 7 -35 10 -60 22 -165 79 -233 281 -331 195 -95 234 -132 234 -222 0
-57 -28 -93 -83 -108 -63 -17 -424 -17 -464 0 -60 25 -183 216 -320 496 -114
234 -139 280 -308 563 -6 9 -53 89 -106 177 -120 199 -150 258 -155 304 -2 20
-6 50 -8 66 -5 30 -14 107 -20 175 -2 19 -7 55 -10 80 -4 25 -8 61 -10 80 -2
19 -6 55 -10 80 -12 79 -36 224 -41 250 -3 14 -7 37 -10 51 -11 63 -46 157
-64 173 -29 27 -81 30 -117 7 -47 -29 -55 -63 -33 -146 19 -71 44 -198 54
-270 3 -22 8 -51 10 -65 2 -14 7 -43 9 -65 19 -153 36 -298 41 -345 11 -108
17 -136 38 -190 21 -56 158 -302 183 -331 8 -8 14 -19 14 -23 0 -3 12 -24 26
-46 15 -22 25 -42 23 -44 -9 -8 -323 -132 -464 -183 -451 -165 -795 -270 -980
-299 -49 -8 -103 -16 -120 -19 -16 -3 -95 -8 -175 -11 -80 -3 -153 -7 -162 -9
-34 -6 -17 10 46 47 105 61 263 186 365 287 121 121 141 144 225 261 86 119
148 247 182 375 24 89 27 118 28 270 0 129 -4 190 -18 255 -30 141 -54 207
-83 229 -63 50 -159 2 -156 -79 0 -8 11 -53 23 -100 12 -47 23 -94 25 -105 45
-268 1 -489 -137 -694 -200 -295 -516 -545 -868 -686 -52 -21 -109 -42 -126
-47 -85 -23 -113 -111 -55 -169 24 -23 39 -29 78 -31 26 0 73 -2 103 -4 86 -5
466 -5 555 0 121 7 233 20 345 41 30 5 103 -33 150 -78 70 -68 130 -185 110
-216 -4 -7 -20 -15 -36 -18 -16 -3 -454 -7 -974 -10 -680 -3 -959 -2 -996 6
-28 7 -65 24 -83 39 -29 24 -34 35 -38 83 -4 58 22 211 53 308 15 43 15 59 5
99 -6 26 -13 56 -16 67 -23 91 -36 342 -21 386 3 8 8 32 11 54 6 42 25 119 49
197 13 43 13 49 -6 86 -12 26 -30 44 -46 50 -35 12 -90 -4 -113 -31 -16 -20
-53 -127 -64 -187 -6 -32 -14 -68 -21 -100 -10 -43 -13 -332 -4 -385 14 -80
19 -108 28 -140 6 -21 1 -58 -16 -128 l-25 -98 -41 5 c-64 9 -215 70 -286 116
-76 49 -103 70 -156 115 -286 248 -532 651 -678 1112 -29 93 -72 260 -80 313
-3 19 -12 71 -20 115 -43 232 -52 569 -20 820 35 286 55 395 109 615 93 372
189 605 452 1094 140 259 196 374 239 493 64 178 90 307 88 446 -2 95 -16 152
-62 239 -44 86 -107 150 -190 190 -92 45 -167 49 -287 13 -49 -14 -119 -28
-155 -31 -85 -7 -143 21 -177 86 -83 156 86 343 332 367 33 3 61 6 63 8 9 7
200 -7 265 -20z m3746 -12 c47 -36 109 -103 179 -196 173 -225 213 -279 259
-348 59 -87 92 -113 143 -110 19 1 175 3 347 5 356 4 337 -1 398 93 20 32 51
78 68 103 55 79 294 373 339 418 113 109 131 55 132 -388 1 -323 -4 -361 -62
-460 l-27 -45 -1 -270 c-1 -345 -10 -379 -121 -489 -125 -123 -503 -409 -637
-479 -157 -84 -152 -86 -660 266 -200 139 -278 203 -300 246 -18 35 -45 115
-53 159 -7 38 -7 413 1 510 3 43 -2 65 -24 110 -29 61 -56 144 -66 207 -3 20
-8 47 -10 59 -5 25 -5 408 1 451 2 17 6 61 10 100 4 38 9 73 11 77 10 15 38 8
73 -19z m769 -6287 c33 -53 57 -98 53 -100 -16 -10 -272 4 -298 16 -30 15 -63
71 -63 108 0 14 18 84 39 156 22 71 42 151 46 179 l8 49 77 -156 c43 -86 105
-199 138 -252z"/>
</g>
</svg>
